<?xml version="1.0" encoding="utf-8"?>
<!-- Generator: Adobe Illustrator 18.1.1, SVG Export Plug-In . SVG Version: 6.00 Build 0)  -->
<svg version="1.1" id="Layer_1" xmlns="http://www.w3.org/2000/svg" xmlns:xlink="http://www.w3.org/1999/xlink" x="0px" y="0px"
	 viewBox="0 0 600 800" enable-background="new 0 0 600 800" xml:space="preserve">
<ellipse fill="#D7DF23" stroke="#000000" stroke-width="8" stroke-miterlimit="10" cx="300" cy="400" rx="293" ry="394"/>
<path fill="#D7DF23" stroke="#000000" stroke-width="8" stroke-miterlimit="10" d="M-598,307"/>
<path stroke="#000000" stroke-miterlimit="10" d="M242.5,261.9c0,43.1,9.7,78.1-34.4,78.1c-42.6,0-34.4-35-34.4-78.1
	s15.4-78.1,34.4-78.1S242.5,218.8,242.5,261.9z"/>
<polygon fill="#D7DF23" points="133.7,223.7 212.6,265.5 133.7,307.3 "/>
<path stroke="#000000" stroke-miterlimit="10" d="M439.2,259.4c0,44.5,9.7,80.6-34.4,80.6c-42.6,0-34.4-36.1-34.4-80.6
	s15.4-80.6,34.4-80.6S439.2,214.9,439.2,259.4z"/>
<polygon fill="#D7DF23" points="330.4,218.7 409.3,260.5 330.4,302.3 "/>
<path fill="none" stroke="#000000" stroke-width="2" stroke-miterlimit="10" d="M313,541"/>
<g>
	<path fill="#FFFFFF" d="M279.6,542.3c-5.3,9.1-8,20.1-5.3,30.3s11.6,19,22.2,19.5c9.9,0.5,19.1-6.3,24.3-14.7
		c5.2-8.4,7.3-18.4,9.2-28.2"/>
	<g>
		<path d="M277.4,541c-5.6,10.1-8.8,22.3-5.2,33.6c2.9,9.1,10.5,17.2,20,19.4c10.1,2.3,20-2.6,26.7-10c8.3-9.4,11-22.1,13.5-34.1
			c0.6-3.1-4.2-4.5-4.8-1.3c-3.3,16.1-10.3,43.5-32.2,40.9c-8.9-1-16-8.5-18.5-16.9c-2.9-9.9,0-20.3,4.9-29.1
			C283.3,540.7,279,538.2,277.4,541L277.4,541z"/>
	</g>
</g>
<g>
	<path fill="#FFFFFF" d="M330.8,547.9c0.5,9,1.1,18.1,3.5,26.7s6.9,17,14.1,22.5c7.2,5.5,17.2,7.6,25.4,3.9
		c8.3-3.7,13.2-12.3,16.5-20.8c5.1-13.4,7.4-27.9,6.7-42.2"/>
	<g>
		<path d="M328.3,547.9c0.8,14.1,1.8,28.8,9.5,41.1c6.4,10.3,17.8,17.7,30.3,16.1c12.3-1.5,19.7-12.2,24-22.8
			c5.7-14,8-29.3,7.3-44.3c-0.1-3.2-5.1-3.2-5,0c0.5,12.4-1,24.7-4.8,36.5c-3.3,10.3-8.9,23-20.7,25.5c-11.8,2.5-22.5-5.7-28-15.5
			c-6.2-11.1-6.9-24.1-7.6-36.5C333.1,544.7,328.1,544.7,328.3,547.9L328.3,547.9z"/>
	</g>
</g>
<line fill="none" stroke="#000000" stroke-miterlimit="10" x1="279.6" y1="541.3" x2="396.9" y2="537.9"/>
<line fill="#FFFFFF" x1="396.9" y1="537.9" x2="395.7" y2="560.1"/>
<g>
	<g>
		<path d="M261.9,335.7c12.2-11.2,26-20.6,41-27.6c12.5-5.8,36.1-17,44.8,0c8,15.5-5,32.2-15,43.2c-11.1,12.3-24.5,22.3-39.2,29.9
			c-2.9,1.5-0.3,5.8,2.5,4.3c13.4-6.8,25.7-15.7,36.2-26.4c9.6-9.7,20.1-21.8,22.4-35.8c1.8-11.2-3-24.2-14.5-28
			c-13-4.3-28.3,3.1-39.8,8.5c-15.4,7.2-29.5,16.8-42,28.3C256,334.4,259.5,337.9,261.9,335.7L261.9,335.7z"/>
	</g>
</g>
<g>
	<g>
		<path d="M226.4,546.9c20.5-0.2,41-0.4,61.5-0.7c32.9-0.4,65.8-0.7,98.7-1.1c7.6-0.1,15.1-0.2,22.7-0.2c6.4-0.1,6.4-10.1,0-10
			c-20.5,0.2-41,0.4-61.5,0.7c-32.9,0.4-65.8,0.7-98.7,1.1c-7.6,0.1-15.1,0.2-22.7,0.2C220,536.9,220,546.9,226.4,546.9L226.4,546.9
			z"/>
	</g>
</g>
</svg>
